<svg height="240" viewBox="0 0 1600 240" width="1600" xmlns="http://www.w3.org/2000/svg"><g fill="#e9ecef" fill-rule="evenodd"><path d="m1600 1c-153.74378 58.3961837-287.82308 135.516295-444.919 141.061162-293.9 10.372-396.201-53.2730005-545.974-43.1710005-247.399 16.6850005-265.399 126.8960005-609.107 99.8960005v41.213838h1600c0-112.321601 0-191.9882673 0-239z" opacity=".24" transform="matrix(-1 0 0 1 1600 0)"/><path d="m1600 17c-140.94534 60.5119726-262.79463 138.966832-408.792 152.298855-292.863 26.744-348.5-54.333-551.5-58.333-244.705-4.822-307 153.659258-639.708 93.659258v35.374887h1600c0-113.589117 0-187.9224505 0-223z" opacity=".48" transform="matrix(-1 0 0 1 1600 0)"/><path d="m1600.00243 44c-132.39754 49.1354346-235.88231 120.862988-446.50474 142.394736-270.471999 26.88-381.562999-79.277-627.138999-47.79-178.549 22.892-235.316569 131.336-526.35856945 80.67l-.002431 20.725264h1600.00473945c.00008-75.928785.00008-141.2621187 0-196z" transform="matrix(-1 0 0 1 1600.000122 0)"/></g></svg>