<svg height="300" viewBox="0 0 1600 300" width="1600" xmlns="http://www.w3.org/2000/svg" xmlns:xlink="http://www.w3.org/1999/xlink">
    <linearGradient id="a" x1="100%" x2="0%" y1="0%" y2="100%">
        <stop offset="0" stop-color="#3bd59e" />
        <stop offset="1" stop-color="#f7ff02" />
    </linearGradient>
    <g fill="none" fill-rule="evenodd">
        <g fill="#e9ecef">
            <path d="m1600 0c-313 0-509.933 196.910631-764.919 205.880731-293.9 10.337541-396.201-53.096013-545.974-43.027575-134.216551 9.021715-201.2886316 45.478331-289.107 72.650377v63.499789h1600z" opacity=".24" transform="matrix(1 0 0 -1 0 299.003322)" />
            <path d="m1600 0c-313 0-485.792 201.924917-728.792 224.041196-292.863 26.65515-348.5-54.152492-551.5-58.139203-137.401225-2.698545-217.164392 45.918004-319.708 78.487433v45.141471h1600z" opacity=".48" transform="matrix(1 0 0 -1 0 289.530898)" />
            <path d="m1600 .78121634c-366.8-13.60365444-422.958 154.49800666-766.5 189.50132866-270.472 26.790698-381.563-79.013621-627.139-47.631229-55.463153 7.087379-124.2501528 28.008089-206.361 62.76213v33.627571h1600z" transform="matrix(1 0 0 -1 0 239.041018)" />
        </g>
        <path d="m828.481521 98.8260918c-244.57465-20.6706793-423.472683 109.3363342-828.481521-46.8260918 405.009372 156.121584 583.907236 21.1720546 828.481521 41.8427031 202.481079 17.1126679 508.827819 217.5126149 771.523339 191.6999229-262.69658 25.876477-569.04103-169.603763-771.523339-186.7165342z" fill="url(#a)" />
    </g>
</svg>
