<?xml version="1.0" standalone="no"?>
<!DOCTYPE svg PUBLIC "-//W3C//DTD SVG 1.1//EN" "http://www.w3.org/Graphics/SVG/1.1/DTD/svg11.dtd" >
<svg xmlns="http://www.w3.org/2000/svg">
<metadata>Generated by IcoMoon</metadata>
<defs>
<font id="icomoon" horiz-adv-x="1024">
<font-face units-per-em="1024" ascent="960" descent="-64" />
<missing-glyph horiz-adv-x="1024" />
<glyph unicode="&#x20;" horiz-adv-x="512" d="" />
<glyph unicode="&#xe900;" glyph-name="gpi" d="M512 917.333c-258.783 0-469.333-210.551-469.333-469.333s209.623-469.333 469.333-469.333c258.783 0 469.333 209.623 469.333 469.333 0 258.783-210.551 469.333-469.333 469.333zM512 41.739c-69.565 0-134.493 17.623-192 48.232v531.478h283.826c97.391 0 153.043-59.362 153.043-147.478 0-99.246-74.203-140.986-140.986-146.551v0.928h-124.29v115.942h112.232c17.623 0 32.464 14.841 32.464 32.464s-14.841 32.464-32.464 32.464c0 0 0 0-0.928 0h-176.232v-246.725h190.145v0.928c115.014 1.855 206.841 65.855 206.841 211.478 0 123.362-100.174 209.623-214.261 213.333h-4.638c-0.928 0-1.855 0-2.783 0h-343.188v-557.449c-92.754 74.203-153.043 189.217-153.043 317.217 0 224.464 181.797 406.261 406.261 406.261s405.333-181.797 405.333-406.261c0-224.464-180.87-406.261-405.333-406.261z" />
<glyph unicode="&#xe901;" glyph-name="arrow-left" d="M809.667 490.333c12.667 0 22.833-3.833 30.5-11.5s11.5-17.833 11.5-30.5c0-13.333-3.833-23.833-11.5-31.5s-17.833-11.5-30.5-11.5h-495l226-226c8.667-8.667 13-18.667 13-30s-4.333-21.333-13-30c-4.667-4-9.833-7.167-15.5-9.5s-10.5-3.5-14.5-3.5-8.833 1.167-14.5 3.5c-5.667 2.333-10.833 5.5-15.5 9.5l-299 299c-2 2-3.333 4-4 6s-2 4.333-4 7c-2 6-3 12-3 18s1 11.333 3 16c0 2 0.833 4 2.5 6s3.5 4.333 5.5 7l299 298c8.667 8.667 18.667 13 30 13s21.333-4.333 30-13 13-18.667 13-30-4.333-21.333-13-30l-226-226z" />
<glyph unicode="&#xe902;" glyph-name="arrow-right" d="M212.667 490.333c-12.667 0-22.833-3.833-30.5-11.5s-11.5-17.833-11.5-30.5c0-13.333 3.833-23.833 11.5-31.5s17.833-11.5 30.5-11.5h495l-226-226c-8.667-8.667-13-18.667-13-30s4.333-21.333 13-30c4.667-4 9.833-7.167 15.5-9.5s10.5-3.5 14.5-3.5 8.833 1.167 14.5 3.5c5.667 2.333 10.833 5.5 15.5 9.5l299 299c2 2 3.333 4 4 6s2 4.333 4 7c2 6 3 12 3 18s-1 11.333-3 16c0 2-0.833 4-2.5 6s-3.5 4.333-5.5 7l-299 298c-8.667 8.667-18.667 13-30 13s-21.333-4.333-30-13-13-18.667-13-30 4.333-21.333 13-30l226-226z" />
<glyph unicode="&#xe903;" glyph-name="envelope" d="M882.933 791.467c23.778 0 43.989-8.322 60.633-24.967s24.967-36.855 24.967-60.633v-513.6c0-23.778-8.322-43.989-24.967-60.633s-36.855-24.967-60.633-24.967h-741.867c-23.778 0-43.989 8.322-60.633 24.967s-24.967 36.855-24.967 60.633v513.6c0 23.778 8.322 43.989 24.967 60.633s36.855 24.967 60.633 24.967zM141.067 734.4c-8.322 0-15.158-2.675-20.508-8.025s-8.025-12.186-8.025-20.508v-73.117c41.611-35.667 131.372-108.188 269.283-217.567l16.050-14.267c23.778-20.211 42.8-34.478 57.067-42.8 22.589-15.456 41.611-23.183 57.067-23.183s34.478 7.728 57.067 23.183c13.078 8.322 31.505 22.589 55.283 42.8l17.833 14.267c137.912 109.378 227.672 181.9 269.283 217.567v73.117c0 8.322-2.675 15.158-8.025 20.508s-12.186 8.025-20.508 8.025zM882.933 163.733c8.322 0 15.158 2.675 20.508 8.025s8.025 12.186 8.025 20.508v365.583c-41.611-33.289-119.483-95.705-233.617-187.25l-17.833-14.267c-28.533-23.778-51.122-41.017-67.767-51.717-29.722-17.833-56.472-26.75-80.25-26.75s-50.528 8.917-80.25 26.75c-17.833 10.7-40.422 27.939-67.767 51.717l-17.833 14.267c-114.134 91.545-192.005 153.961-233.617 187.25v-365.583c0-8.322 2.675-15.158 8.025-20.508s12.186-8.025 20.508-8.025z" />
<glyph unicode="&#xe904;" glyph-name="mobile-rorate" d="M672.134 784.871c116.574-55.342 200.302-168.703 212.976-302.951h53.557c-18.209 219.938-202.086 392.747-426.667 392.747-8.033 0-15.71-0.715-23.744-1.25l136.213-136.211s47.665 47.665 47.665 47.665zM448.803 812.362c-20.887 20.887-54.807 20.887-75.694 0l-227.257-227.257c-20.887-20.887-20.887-54.807 0-75.694l429.167-429.167c20.887-20.887 54.807-20.887 75.694 0l227.257 227.259c20.887 20.887 20.887 54.807 0 75.694zM613.043 118.092l-429.344 429.165 227.259 227.259 429.167-429.167zM351.866 107.558c-116.574 55.342-200.302 168.703-212.976 302.953h-53.557c18.209-219.94 202.086-392.749 426.667-392.749 8.033 0 15.71 0.715 23.744 1.25l-136.213 136.211z" />
<glyph unicode="&#xe905;" glyph-name="grid" d="M128 832h170.667v-170.667h-170.667zM128 533.333h170.667v-170.667h-170.667zM128 234.667h170.667v-170.667h-170.667zM426.667 832h170.667v-170.667h-170.667zM426.667 533.333h170.667v-170.667h-170.667zM426.667 234.667h170.667v-170.667h-170.667zM725.333 832h170.667v-170.667h-170.667zM725.333 533.333h170.667v-170.667h-170.667zM725.333 234.667h170.667v-170.667h-170.667z" />
<glyph unicode="&#xe906;" glyph-name="grid-alt" d="M128 789.333h341.333v-128h-341.333zM128 533.333h341.333v-128h-341.333zM128 277.333h341.333v-128h-341.333zM597.333 789.333h341.333v-128h-341.333zM597.333 533.333h341.333v-128h-341.333zM597.333 277.333h341.333v-128h-341.333z" />
<glyph unicode="&#xe907;" glyph-name="security" d="M635.509 514.909h-247.018v-163.879h247.018zM400.842 540.121v50.424c0 62.659 49.767 113.455 111.158 113.455s111.158-50.795 111.158-113.455v-50.424h12.351c13.642 0 24.702-11.288 24.702-25.212v-163.879c0-13.924-11.059-25.212-24.702-25.212h-247.018c-13.642 0-24.702 11.288-24.702 25.212v163.879c0 13.924 11.059 25.212 24.702 25.212zM425.544 540.121h172.912v50.424c0 48.735-38.708 88.242-86.456 88.242s-86.456-39.507-86.456-88.242zM203.134 604.715c0.062-0.512 0.094-1.034 0.094-1.564v-75.636h98.807c6.821 0 12.351-5.644 12.351-12.606s-5.53-12.606-12.351-12.606h-111.158c-3.411 0-6.498 1.411-8.733 3.692s-3.617 5.433-3.617 8.914v88.242c0 0.53 0.032 1.052 0.094 1.564-21.356 5.564-37.147 25.33-37.147 48.86 0 27.849 22.119 50.424 49.404 50.424s49.404-22.576 49.404-50.424c0-23.53-15.791-43.296-37.147-48.86zM190.877 678.788c-13.642 0-24.702-11.288-24.702-25.212s11.059-25.212 24.702-25.212 24.702 11.288 24.702 25.212-11.059 25.212-24.702 25.212zM139.941 414.157c-5.452-21.797-24.817-37.914-47.871-37.914-27.285 0-49.404 22.576-49.404 50.424s22.119 50.424 49.404 50.424c23.054 0 42.42-16.117 47.871-37.914 0.502 0.063 1.013 0.096 1.532 0.096h160.561c6.821 0 12.351-5.644 12.351-12.606s-5.53-12.606-12.351-12.606h-160.561c-0.519 0-1.030 0.033-1.532 0.096zM92.070 451.879c-13.642 0-24.702-11.288-24.702-25.212s11.059-25.212 24.702-25.212c13.642 0 24.702 11.288 24.702 25.212s-11.059 25.212-24.702 25.212zM203.134 248.618c21.356-5.564 37.147-25.33 37.147-48.86 0-27.849-22.119-50.424-49.404-50.424s-49.404 22.576-49.404 50.424c0 23.53 15.791 43.296 37.147 48.86-0.062 0.512-0.094 1.034-0.094 1.564v88.242c0 3.481 1.382 6.633 3.617 8.914s5.323 3.692 8.733 3.692h111.158c6.821 0 12.351-5.644 12.351-12.606s-5.53-12.606-12.351-12.606h-98.807v-75.636c0-0.53-0.032-1.052-0.094-1.564zM190.877 174.545c13.642 0 24.702 11.288 24.702 25.212s-11.059 25.212-24.702 25.212-24.702-11.288-24.702-25.212 11.059-25.212 24.702-25.212zM820.866 604.715c-21.356 5.564-37.147 25.33-37.147 48.86 0 27.849 22.119 50.424 49.404 50.424s49.404-22.576 49.404-50.424c0-23.53-15.791-43.296-37.147-48.86 0.062-0.512 0.094-1.034 0.094-1.564v-88.242c0-3.481-1.382-6.633-3.617-8.914s-5.323-3.692-8.733-3.692h-111.158c-6.821 0-12.351 5.644-12.351 12.606s5.53 12.606 12.351 12.606h98.807v75.636c0 0.53 0.032 1.052 0.094 1.564zM833.123 678.788c-13.642 0-24.702-11.288-24.702-25.212s11.059-25.212 24.702-25.212 24.702 11.288 24.702 25.212-11.059 25.212-24.702 25.212zM884.059 414.157c-0.502-0.063-1.013-0.096-1.532-0.096h-160.561c-6.821 0-12.351 5.644-12.351 12.606s5.53 12.606 12.351 12.606h160.561c0.519 0 1.030-0.033 1.532-0.096 5.452 21.797 24.817 37.914 47.871 37.914 27.285 0 49.404-22.576 49.404-50.424s-22.119-50.424-49.404-50.424c-23.054 0-42.42 16.117-47.871 37.914zM931.93 451.879c-13.642 0-24.702-11.288-24.702-25.212s11.059-25.212 24.702-25.212 24.702 11.288 24.702 25.212-11.059 25.212-24.702 25.212zM820.866 248.618c-0.062 0.512-0.094 1.034-0.094 1.564v75.636h-98.807c-6.821 0-12.351 5.644-12.351 12.606s5.53 12.606 12.351 12.606h111.158c3.411 0 6.498-1.411 8.733-3.692s3.617-5.433 3.617-8.914v-88.242c0-0.53-0.032-1.052-0.094-1.564 21.356-5.564 37.147-25.33 37.147-48.86 0-27.849-22.119-50.424-49.404-50.424s-49.404 22.576-49.404 50.424c0 23.53 15.791 43.296 37.147 48.86zM833.123 174.545c13.642 0 24.702 11.288 24.702 25.212s-11.059 25.212-24.702 25.212-24.702-11.288-24.702-25.212 11.059-25.212 24.702-25.212zM523.963 429.815c0.254-1.006 0.388-2.061 0.388-3.148v-25.212c0-6.962-5.53-12.606-12.351-12.606s-12.351 5.644-12.351 12.606v25.212c0 1.087 0.135 2.142 0.388 3.148-7.597 4.3-12.739 12.569-12.739 22.064 0 13.924 11.059 25.212 24.702 25.212s24.702-11.288 24.702-25.212c0-9.495-5.142-17.764-12.739-22.064z" />
<glyph unicode="&#xe908;" glyph-name="monitor" d="M883.901 491.097l-12.732 12.732c-0.044 0.044-0.088 0.088-0.132 0.133-83.384-74.664-211.581-71.94-291.694 8.174-67.052 67.052-79.893 167.786-38.522 247.739h-186.411c-4.153-16.135-16.856-28.838-32.991-32.991v-35.884h160.709c6.34 0 11.479-5.139 11.479-11.479s-5.139-11.479-11.479-11.479h-172.188c-6.34 0-11.479 5.139-11.479 11.479v47.364c-16.135 4.153-28.838 16.856-32.991 32.991h-162.156c-25.359 0-45.917-20.558-45.917-45.917v-70.322c16.164-4.16 28.884-16.902 33.014-33.079 0.467 0.058 0.942 0.087 1.424 0.087h390.294c6.34 0 11.479-5.139 11.479-11.479s-5.139-11.479-11.479-11.479h-390.294c-0.482 0-0.958 0.030-1.424 0.087-4.129-16.177-16.849-28.918-33.014-33.079v-345.824c0-25.359 20.558-45.917 45.917-45.917h12.926c4.153 16.135 16.856 28.838 32.991 32.991v322.865c0 6.34 5.139 11.479 11.479 11.479h355.856c6.34 0 11.479-5.139 11.479-11.479s-5.139-11.479-11.479-11.479h-344.377v-311.386c16.135-4.153 28.838-16.856 32.991-32.991h632.804c25.359 0 45.917 20.558 45.917 45.917zM906.859 468.139v-259.267c0-38.039-30.837-68.875-68.875-68.875h-355.856v-103.313h160.709c6.34 0 11.479-5.139 11.479-11.479s-5.139-11.479-11.479-11.479h-344.377c-6.34 0-11.479 5.139-11.479 11.479s5.139 11.479 11.479 11.479h160.709v103.313h-253.99c-5.097-19.804-23.075-34.438-44.47-34.438s-39.373 14.633-44.47 34.438h-12.926c-38.039 0-68.875 30.837-68.875 68.875v345.824c-19.804 5.097-34.438 23.075-34.438 44.47s14.633 39.373 34.438 44.47v70.322c0 38.039 30.837 68.875 68.875 68.875h162.156c5.097 19.804 23.075 34.438 44.47 34.438s39.373-14.633 44.47-34.438h200.207c7.204 10.427 15.446 20.353 24.726 29.633 82.934 82.934 217.397 82.934 300.331 0 74.778-74.778 82.132-191.448 22.062-274.465 0.657-0.527 1.292-1.094 1.902-1.704l113.639-113.639c8.966-8.966 8.966-23.502 0-32.468s-23.502-8.966-32.468 0zM160.709 128.517c12.68 0 22.958 10.279 22.958 22.958s-10.279 22.958-22.958 22.958c-12.68 0-22.958-10.279-22.958-22.958s10.279-22.958 22.958-22.958zM45.917 622.124c-12.68 0-22.958-10.279-22.958-22.958s10.279-22.958 22.958-22.958 22.958 10.279 22.958 22.958c0 12.68-10.279 22.958-22.958 22.958zM332.898 771.354c0 12.68-10.279 22.958-22.958 22.958s-22.958-10.279-22.958-22.958c0-8.498 4.617-15.917 11.479-19.887 3.426-2.048 7.253-3.071 11.479-3.071s8.053 1.024 11.479 3.071c6.862 3.97 11.479 11.389 11.479 19.887zM595.577 796.232c-73.968-73.968-73.968-193.894 0-267.862s193.894-73.968 267.862 0c73.968 73.968 73.968 193.894 0 267.862s-193.894 73.968-267.862 0zM597.955 721.26c2.684 5.744 9.516 8.224 15.26 5.539s8.224-9.516 5.539-15.26c-2.335-4.995-4.335-10.135-5.991-15.387-1.907-6.046-8.354-9.402-14.401-7.495s-9.402 8.354-7.495 14.401c1.959 6.211 4.325 12.291 7.087 18.201zM838.701 763.574c4.483-4.483 4.483-11.751 0-16.234s-11.751-4.483-16.234 0c-49.312 49.312-129.263 49.312-178.575 0-4.483-4.483-11.751-4.483-16.234 0s-4.483 11.751 0 16.234c58.278 58.278 152.765 58.278 211.043 0zM719.582 619.805c5.932 0 10.741-4.81 10.741-10.741s-4.809-10.741-10.741-10.741h-43.046c-5.932 0-10.741 4.81-10.741 10.741v10.077c0 19.693 16.022 35.715 35.715 35.715 4.042 0 7.331 3.289 7.331 7.331s-3.289 7.331-7.331 7.331h-24.975c-5.932 0-10.741 4.81-10.741 10.741s4.809 10.741 10.741 10.741h24.975c15.887 0 28.812-12.925 28.812-28.812s-12.925-28.811-28.812-28.811c-7.626 0-13.871-6.030-14.219-13.571zM799.937 690.999c5.932 0 10.741-4.81 10.741-10.741v-71.065c0-5.931-4.809-10.741-10.741-10.741s-10.741 4.81-10.741 10.741v24.505h-32.305c-5.932 0-10.741 4.81-10.741 10.741v35.534c0 5.931 4.809 10.741 10.741 10.741s10.741-4.81 10.741-10.741v-24.793h21.564v25.079c0 5.931 4.809 10.741 10.741 10.741zM298.46 369.581h344.377c31.699 0 57.396-25.697 57.396-57.396s-25.697-57.396-57.396-57.396h-344.377c-31.699 0-57.396 25.697-57.396 57.396s25.697 57.396 57.396 57.396z" />
<glyph unicode="&#xe909;" glyph-name="control" d="M500.772 160.561h-348.070c-37.207 0-67.368 30.162-67.368 67.368v494.035c0 37.207 30.162 67.368 67.368 67.368h718.596c37.207 0 67.368-30.162 67.368-67.368v-494.035c0-37.207-30.162-67.368-67.368-67.368h-348.070v-101.053h157.193c6.201 0 11.228-5.027 11.228-11.228s-5.027-11.228-11.228-11.228h-336.842c-6.201 0-11.228 5.027-11.228 11.228s5.027 11.228 11.228 11.228h157.193zM689.888 654.596l-32.322 32.322c-4.385 4.385-4.385 11.494 0 15.879s11.494 4.385 15.879 0l47.637-47.637c4.385-4.385 4.385-11.494 0-15.879l-47.637-47.637c-4.385-4.385-11.494-4.385-15.879 0s-4.385 11.494 0 15.879l24.616 24.616h-271.235c-6.201 0-11.228 5.027-11.228 11.228s5.027 11.228 11.228 11.228zM442.87 486.175l24.616-24.616c4.385-4.385 4.385-11.494 0-15.879s-11.494-4.385-15.879 0l-47.637 47.637c-4.385 4.385-4.385 11.494 0 15.879l47.637 47.637c4.385 4.385 11.494 4.385 15.879 0s4.385-11.494 0-15.879l-32.322-32.322h174.2c6.201 0 11.228-5.027 11.228-11.228s-5.027-11.228-11.228-11.228zM354.807 654.596c6.201 0 11.228-5.027 11.228-11.228s-5.027-11.228-11.228-11.228h-22.456c-6.201 0-11.228 5.027-11.228 11.228s5.027 11.228 11.228 11.228zM152.702 766.877c-24.804 0-44.912-20.108-44.912-44.912v-494.035c0-24.804 20.108-44.912 44.912-44.912h718.596c24.804 0 44.912 20.108 44.912 44.912v494.035c0 24.804-20.108 44.912-44.912 44.912zM253.754 396.351h89.825c37.207 0 67.368-30.162 67.368-67.368v-44.912c0-12.402-10.054-22.456-22.456-22.456h-179.649c-12.402 0-22.456 10.054-22.456 22.456v44.912c0 37.207 30.162 67.368 67.368 67.368zM298.667 553.544c31.005 0 56.14-25.135 56.14-56.14s-25.135-56.14-56.14-56.14-56.14 25.135-56.14 56.14c0 31.005 25.135 56.14 56.14 56.14zM680.421 396.351h89.825c37.207 0 67.368-30.162 67.368-67.368v-44.912c0-12.402-10.054-22.456-22.456-22.456h-179.649c-12.402 0-22.456 10.054-22.456 22.456v44.912c0 37.207 30.162 67.368 67.368 67.368zM725.333 553.544c31.005 0 56.14-25.135 56.14-56.14s-25.135-56.14-56.14-56.14-56.14 25.135-56.14 56.14c0 31.005 25.135 56.14 56.14 56.14z" />
<glyph unicode="&#xe90a;" glyph-name="megaphone" d="M191.969 205.492c-63.297-25.344-137.844-1.25-173.203 60-38.703 66.984-15.562 152.687 51.242 191.242l169.852 98.063 261.266 332.828c11.109 17.383 29.859 27.664 50.516 27.664 0.258 0 0.508 0 0.766-0.008 21.375-0.266 40.523-11.477 51.211-29.992l73.789-127.813 76.945 4.617c7.539 0.445 14.734-3.398 18.523-9.961l40-69.281c3.789-6.562 3.539-14.695-0.633-21.023l-42.477-64.336 66.469-115.125c22.453-38.867-4.18-87.484-48.633-89.898-359.586-70.539-379.977-74.539-383.078-75.141l26.008-45.047c5.523-9.563 2.242-21.789-7.32-27.32l-51.961-30 60-103.938c22.133-38.289 8.984-87.172-29.273-109.281-38.664-22.352-87.555-8.398-109.289 29.289zM396.617 91.016c-1.859 3.211 15.727-27.25-100.008 173.234l-69.281-40 100-173.227c10.922-18.93 35.406-25.758 54.633-14.641 19.164 11.070 25.703 35.523 14.656 54.633zM351.25 249.609l34.641 20-20 34.641-34.641-20zM744.414 721.43l-44.648-2.68 47.641-82.523 24.648 37.328zM534.578 865.695c-1.023-1.68-1.688-2.32-6.852-8.961l246.070-426.211c6.984 1.305 8.242 1.797 10.969 1.859 15.195 0.375 24.406 16.867 16.828 29.984l-232.625 402.93c-5.133 8.891-13.641 9.953-17.055 9.992-3.453 0.094-11.969-0.813-17.336-9.594zM501.109 822.828l-223.82-285.125 106.094-183.758 348.922 68.437zM53.406 285.492c27.57-47.75 88.844-64.172 136.602-36.609l155.883 90.008-100 173.203-155.883-90c-30.852-17.813-50.023-51.031-50.023-86.703 0-17.453 4.641-34.703 13.422-49.898zM994.273 872.508c9.648 5.375 21.828 1.906 27.195-7.75 5.375-9.648 1.906-21.828-7.75-27.203l-111.437-62.016c-9.672-5.383-21.844-1.891-27.203 7.75-5.375 9.648-1.898 21.828 7.75 27.203zM982.586 665.367c10.672-2.852 17.008-13.82 14.148-24.492-2.844-10.594-13.758-17.023-24.492-14.141l-77.281 20.703c-10.672 2.859-17.008 13.82-14.148 24.492s13.828 17 24.5 14.141zM788.398 945.172c2.859 10.672 13.828 17 24.492 14.141 10.672-2.859 17-13.828 14.141-24.5l-20.719-77.281c-2.867-10.68-13.836-16.992-24.5-14.141-10.672 2.867-17 13.828-14.141 24.5zM273.93 343.531c-9.562-5.523-21.805-2.242-27.32 7.32-5.523 9.555-2.242 21.797 7.32 27.32 9.563 5.516 21.797 2.234 27.32-7.32 5.516-9.563 2.242-21.805-7.32-27.32zM211.969 330.852c5.523-9.57 2.242-21.797-7.32-27.32l-34.641-20c-28.781-16.609-65.5-6.555-81.961 21.961-5.523 9.563-2.242 21.797 7.32 27.32s21.797 2.242 27.32-7.32c5.516-9.547 17.773-12.836 27.32-7.32l34.641 20c9.562 5.523 21.797 2.242 27.32-7.32z" />
<glyph unicode="&#xe90b;" glyph-name="cerdit-card" d="M996.818 615.76c36.242-35.5 36.242-93.269 0.002-128.773l-498.44-488.268h-162.512l-308.726 302.425c-17.502 17.143-27.142 40.010-27.142 64.387s9.64 47.24 27.142 64.387l513.964 503.477c17.504 17.145 40.848 26.584 65.73 26.584 24.884 0 48.226-9.443 65.73-26.588zM966.65 516.539c19.604 19.208 19.606 50.463 0 69.671l-178.678 175.026-493.596-483.525c-4.166-4.079-9.626-6.12-15.084-6.12s-10.918 2.040-15.084 6.119c-8.33 8.164-8.33 21.396 0 29.554l493.596 483.527-115.406 113.049c-9.444 9.251-22.074 14.345-35.562 14.345s-26.118-5.094-35.562-14.343l-513.964-503.475c-9.444-9.251-14.644-21.624-14.644-34.836s5.2-25.583 14.642-34.832l24.912-24.404 493.59 483.521c8.334 8.162 21.838 8.162 30.17 0.002 8.33-8.16 8.33-21.392 0-29.552l-493.59-483.521 269.174-263.683c9.422-9.232 22.018-14.32 35.634-14.341 13.458 0.020 26.058 5.11 35.484 14.341zM298.231-1.328h427.537c11.542 0 20.898-9.356 20.898-20.898s-9.356-20.898-20.898-20.898h-427.537c-11.542 0-20.898 9.356-20.898 20.898s9.356 20.898 20.898 20.898zM525.602 356.446c8.33-8.16 8.33-21.39-0.002-29.554l-167.868-164.44c-4.166-4.079-9.626-6.12-15.084-6.12s-10.918 2.040-15.084 6.12c-8.33 8.164-8.33 21.394 0 29.554l167.868 164.44c8.336 8.158 21.84 8.16 30.17 0zM456.75 200.344c8.336 8.162 21.838 8.162 30.168 0s8.33-21.394 0-29.554l-68.85-67.445c-4.166-4.079-9.622-6.12-15.084-6.12-5.458 0-10.918 2.041-15.084 6.12-8.33 8.162-8.33 21.394 0 29.554zM520.108 262.403c8.33 8.16 21.84 8.158 30.166-0.002 8.33-8.162 8.33-21.392-0.002-29.552l-9.050-8.863c-4.164-4.081-9.624-6.122-15.082-6.122s-10.92 2.041-15.084 6.122c-8.33 8.164-8.33 21.394 0.002 29.554zM814.146 639.099l60.336-59.107c8.33-8.16 8.33-21.392 0-29.552l-90.506-88.657c-4.166-4.079-9.622-6.12-15.084-6.12-5.458 0-10.918 2.040-15.084 6.12l-60.34 59.103c-4 3.918-6.248 9.234-6.248 14.776s2.248 10.856 6.248 14.776l90.51 88.661c4.002 3.918 9.426 6.12 15.084 6.12s11.084-2.202 15.084-6.12zM768.89 506.11l60.338 59.105-30.168 29.554-60.34-59.107zM640.678 802.901c-5.46 0-10.916 2.038-15.082 6.119-8.332 8.158-8.334 21.39-0.006 29.552l9.050 8.869c8.328 8.162 21.838 8.164 30.168 0.006 8.332-8.158 8.334-21.39 0.006-29.552l-9.050-8.869c-4.164-4.083-9.624-6.124-15.086-6.124zM214.43 258.501c8.332 8.162 21.836 8.162 30.168 0 8.33-8.16 8.33-21.392 0-29.554l-9.050-8.865c-4.166-4.079-9.626-6.119-15.084-6.119s-10.918 2.040-15.084 6.119c-8.33 8.164-8.33 21.396 0 29.554z" />
<glyph unicode="&#xe90c;" glyph-name="users" d="M512.84 777.312c-51.276 0-92.84 40.682-92.84 90.864s41.566 90.864 92.84 90.864 92.84-40.682 92.84-90.864c0-50.182-41.566-90.864-92.84-90.864zM512.84 913.609c-25.638 0-46.42-20.34-46.42-45.432s20.782-45.432 46.42-45.432c25.638 0 46.42 20.34 46.42 45.432s-20.782 45.432-46.42 45.432zM546.563 762.575c69.847 1.228 127.489-53.196 128.746-121.559v-18.172c0-12.494-12.766-19.309-25.531-19.309h-273.877c-12.766 0-25.531 6.815-25.531 19.309v18.172c0.009 0.4 0.018 0.802 0.029 1.202 1.935 68.348 60.114 122.222 129.948 120.329h64.987c0.409 0.011 0.817 0.022 1.228 0.028zM399.111 648.968h227.455c-2.319 34.075-38.294 68.148-81.234 68.148h-64.987c-42.937 0-78.912-34.075-81.234-68.148zM135.679 382.054c-12.819 0-23.21 10.17-23.21 22.716-0.164 118.826 54.929 231.265 149.704 305.531 9.296 6.026 21.659 4.731 29.441-3.087 8.945-8.987 8.754-23.368-0.429-32.123-83.706-65.805-132.369-165.239-132.296-270.321 0-12.546-10.391-22.716-23.21-22.716zM625.951 76.72c12.084 4.189 25.349-2.002 29.627-13.824 3.869-12.211-2.785-25.236-15.087-29.532-82.424-27.264-171.721-27.264-254.147 0-0.458 0.139-0.908 0.296-1.355 0.465-11.351 4.315-16.979 16.82-12.57 27.929 3.885 11.885 16.839 18.479 29.012 14.766 72.677-23.81 151.299-23.81 223.976 0 0.18 0.067 0.362 0.133 0.544 0.196zM717.087 687.585c-10.575 7.213-13.174 21.453-5.804 31.803 7.372 10.35 21.919 12.892 32.495 5.678 106.007-73.727 169.111-193.018 169.433-320.297 0-12.546-10.391-22.716-23.21-22.716s-23.21 10.17-23.21 22.716c0.16 112.513-55.702 218.045-149.704 282.815zM164.691 152.621c-51.273 0-92.84 40.68-92.84 90.864s41.566 90.864 92.84 90.864c51.273 0 92.84-40.682 92.84-90.864s-41.566-90.864-92.84-90.864zM164.691 288.917c-25.638 0-46.42-20.34-46.42-45.432s20.782-45.432 46.42-45.432c25.638 0 46.42 20.34 46.42 45.432s-20.782 45.432-46.42 45.432zM198.414 137.883c69.85 1.228 127.491-53.196 128.744-121.559v-18.172c0-12.494-12.766-19.309-25.531-19.309h-273.877c-12.766 0-25.531 6.815-25.531 19.309v18.172c0.009 0.4 0.018 0.802 0.029 1.202 1.935 68.348 60.114 122.222 129.948 120.329h64.99c0.409 0.011 0.817 0.022 1.228 0.028zM50.962 24.277h227.455c-2.319 34.075-38.294 68.148-81.234 68.148h-64.987c-42.937 0-78.912-34.075-81.234-68.148zM768.147 243.485c0 50.185 41.566 90.864 92.84 90.864s92.84-40.682 92.84-90.864c0-50.182-41.566-90.864-92.84-90.864s-92.84 40.682-92.84 90.864zM907.406 243.485c0 25.092-20.782 45.432-46.42 45.432s-46.42-20.34-46.42-45.432c0-25.092 20.782-45.432 46.42-45.432s46.42 20.34 46.42 45.432zM894.709 137.883c69.85 1.228 127.491-53.196 128.746-121.559v-18.172c0-12.494-12.766-19.309-25.531-19.309h-273.877c-12.766 0-25.531 6.815-25.531 19.309v18.172c0.009 0.4 0.018 0.802 0.029 1.202 1.935 68.348 60.114 122.222 129.948 120.329h64.987c0.409 0.011 0.817 0.022 1.228 0.028zM747.258 24.277h227.455c-2.319 34.075-38.294 68.148-81.234 68.148h-64.987c-42.937 0-78.912-34.075-81.234-68.148z" />
<glyph unicode="&#xe90d;" glyph-name="support" d="M310.997 723.907c6.998-8.487 5.881-20.977-2.585-28.001-0.032-0.028-0.204-0.168-0.236-0.196-3.727-3.050-8.238-4.541-12.721-4.541-5.755 0-11.464 2.457-15.398 7.23-6.998 8.487-5.881 20.977 2.585 28.001 0.032 0.028 0.204 0.168 0.236 0.196 8.509 6.968 21.121 5.801 28.119-2.689zM511.004 808.296c198.119 0 359.298-161.181 359.298-359.298 0-42.407-7.32-83.924-21.758-123.405-2.96-8.090-10.607-13.11-18.749-13.11-2.278 0-4.593 0.393-6.855 1.22-10.354 3.785-15.677 15.248-11.891 25.602 12.827 35.073 19.33 71.979 19.33 109.694 0 176.106-143.272 319.376-319.376 319.376-48.232 0-94.569-10.476-137.725-31.135-9.943-4.761-21.861-0.557-26.622 9.384-4.759 9.945-0.557 21.863 9.386 26.624 48.577 23.259 100.715 35.050 154.961 35.050zM591.255 468.959c11.024 0 19.961-8.939 19.961-19.961s-8.937-19.961-19.961-19.961h-79.998c-11.024 0-19.961 8.939-19.961 19.961v18.727c0 36.599 29.776 66.374 66.374 66.374 7.511 0 13.623 6.112 13.623 13.623s-6.112 13.623-13.623 13.623h-46.413c-11.024 0-19.961 8.939-19.961 19.961s8.937 19.961 19.961 19.961h46.413c29.524 0 53.545-24.021 53.545-53.545s-24.021-53.543-53.545-53.543c-14.172 0-25.778-11.206-26.424-25.221zM739.045 600.776c11.024 0 19.961-8.939 19.961-19.961v-132.070c0-11.022-8.937-19.961-19.961-19.961s-19.961 8.939-19.961 19.961v45.541h-60.037c-11.024 0-19.961 8.939-19.961 19.961v66.037c0 11.022 8.937 19.961 19.961 19.961s19.961-8.939 19.961-19.961v-46.076h40.076v46.607c0 11.022 8.937 19.961 19.961 19.961zM1015.421 335.785c6.274-5.663 8.3-14.661 5.058-22.464l-53.364-128.655c-3.234-7.799-11.003-12.743-19.456-12.288l-31.025 1.585c-35.097 1.81-69.472-11.432-94.318-36.279-24.847-24.845-38.072-59.224-36.279-94.32l1.583-31.025c0.431-8.432-4.489-16.22-12.286-19.456l-128.655-53.364c-2.475-1.026-5.072-1.523-7.643-1.523-5.535 0-10.955 2.302-14.821 6.585l-20.797 23.037c-23.566 26.101-57.248 41.072-92.416 41.072s-68.85-14.971-92.416-41.072l-20.797-23.037c-5.663-6.272-14.657-8.294-22.464-5.062l-128.655 53.364c-7.797 3.236-12.717 11.024-12.286 19.456l1.583 31.025c1.792 35.095-11.43 69.474-36.277 94.32-24.845 24.849-59.23 38.092-94.32 36.279l-31.025-1.585c-8.442-0.431-16.222 4.491-19.456 12.288l-53.364 128.655c-3.236 7.803-1.21 16.801 5.062 22.464l23.037 20.795c26.101 23.566 41.072 57.25 41.072 92.416s-14.969 68.85-41.072 92.414l-23.037 20.799c-6.272 5.663-8.3 14.661-5.062 22.464l53.366 128.657c3.234 7.799 11.003 12.703 19.456 12.288l31.025-1.585c35.085-1.812 69.472 11.432 94.32 36.279 24.845 24.845 38.070 59.224 36.277 94.32l-1.583 31.025c-0.431 8.432 4.489 16.22 12.286 19.456l128.655 53.364c7.803 3.234 16.801 1.212 22.464-5.062l20.797-23.037c23.566-26.101 57.248-41.072 92.416-41.072s68.85 14.971 92.416 41.072l20.797 23.037c5.663 6.272 14.659 8.292 22.464 5.062l128.657-53.364c7.797-3.236 12.717-11.024 12.286-19.456l-1.583-31.025c-1.792-35.095 11.43-69.474 36.277-94.32 24.845-24.847 59.236-38.094 94.32-36.279l31.025 1.585c8.448 0.443 16.22-4.489 19.456-12.288l53.364-128.655c3.236-7.803 1.21-16.801-5.062-22.464l-23.037-20.797c-26.101-23.566-41.072-57.25-41.072-92.416s14.969-68.85 41.072-92.414zM935.639 212.967l42.573 102.632-12.575 11.354c-34.473 31.121-54.242 75.606-54.242 122.048s19.769 90.926 54.242 122.048l12.575 11.354-42.571 102.632-16.965-0.868c-46.355-2.373-91.765 15.101-124.587 47.92-32.82 32.82-50.286 78.229-47.916 124.585l0.866 16.965-102.632 42.569-11.354-12.575c-31.121-34.473-75.604-54.242-122.048-54.242s-90.928 19.769-122.048 54.242l-11.354 12.575-102.632-42.569 0.866-16.965c2.369-46.355-15.097-91.765-47.916-124.585-32.822-32.824-78.215-50.284-124.587-47.92l-16.965 0.868-42.571-102.632 12.575-11.354c34.473-31.121 54.242-75.606 54.242-122.048s-19.769-90.926-54.242-122.048l-12.575-11.354 42.567-102.632 16.965 0.868c46.355 2.387 91.765-15.101 124.587-47.92s50.288-78.229 47.918-124.585l-0.866-16.965 102.632-42.569 11.354 12.575c31.121 34.473 75.604 54.242 122.048 54.242s90.928-19.769 122.048-54.242l11.354-12.575 102.632 42.569-0.866 16.965c-2.369 46.355 15.097 91.765 47.916 124.585 32.822 32.824 78.233 50.272 124.587 47.92zM701.725 257.227c29.223-29.223 29.223-76.772 0-105.995-34.439-34.439-80.229-53.406-128.932-53.406s-94.493 18.967-128.932 53.406l-230.62 230.62c-71.093 71.095-71.093 186.771 0 257.864 29.225 29.227 76.774 29.221 105.995 0.002l73.201-73.201c24.654-24.652 29.105-62.606 10.823-92.294l-22.829-37.072 118.728-118.728 37.074 22.827c29.688 18.282 67.642 13.831 92.294-10.823zM673.497 179.464c13.657 13.657 13.657 35.878 0 49.537l-73.199 73.199c-11.521 11.52-29.257 13.601-43.134 5.058l-50.501-31.095c-7.873-4.847-18.045-3.653-24.58 2.88l-141.033 141.033c-6.537 6.537-7.731 16.709-2.882 24.58l31.097 50.501c8.543 13.875 6.463 31.612-5.058 43.132l-73.201 73.201c-6.829 6.829-15.799 10.244-24.768 10.244s-17.941-3.415-24.77-10.244c-6.036-6.036-11.376-12.506-16.101-19.276l77.696-77.696c7.795-7.797 7.795-20.436 0-28.231-3.896-3.896-9.006-5.847-14.114-5.847s-10.216 1.95-14.114 5.847l-68.159 68.159c-15.767-49.22-4.196-105.372 34.794-144.362l230.62-230.624c26.899-26.899 62.662-41.713 100.703-41.713 15.077 0 29.782 2.363 43.733 6.847l-61.24 61.242c-7.797 7.797-7.795 20.436 0 28.231 7.795 7.793 20.434 7.791 28.229 0l70.724-70.724c6.805 4.765 13.262 10.124 19.258 16.121z" />
<glyph unicode="&#xe90e;" glyph-name="server" d="M66.065 223.081h33.032v-33.032h-33.032zM132.129 223.081h33.032v-33.032h-33.032zM462.452 190.048h33.032v-33.032h-33.032zM396.387 190.048h33.032v-33.032h-33.032zM66.065 487.339h33.032v-33.032h-33.032zM132.129 487.339h33.032v-33.032h-33.032zM462.452 454.306h33.032v-33.032h-33.032zM396.387 454.306h33.032v-33.032h-33.032zM66.065 751.597h33.032v-33.032h-33.032zM132.129 751.597h33.032v-33.032h-33.032zM462.452 718.565h33.032v-33.032h-33.032zM396.387 718.565h33.032v-33.032h-33.032zM974.452 735.081c27.315 0 49.548-22.226 49.548-49.548v-462.452c0-27.315-22.234-49.548-49.548-49.548h-412.903v-33.032c0-27.315-22.234-49.548-49.548-49.548h-462.452c-27.315 0-49.548 22.234-49.548 49.548v99.097c0 27.323 22.234 49.548 49.548 49.548h16.516v66.065h-16.516c-27.315 0-49.548 22.234-49.548 49.548v99.097c0 27.323 22.234 49.548 49.548 49.548h16.516v66.065h-16.516c-27.315 0-49.548 22.234-49.548 49.548v99.097c0 27.323 22.234 49.548 49.548 49.548h462.452c27.315 0 49.548-22.226 49.548-49.548v-66.065h177.782l66.065 33.032zM33.032 669.016c0-9.097 7.403-16.516 16.516-16.516h462.452c9.113 0 16.516 7.419 16.516 16.516v99.097c0 9.105-7.403 16.516-16.516 16.516h-462.452c-9.113 0-16.516-7.411-16.516-16.516zM99.097 619.468v-66.065h363.355v66.065zM33.032 404.758c0-9.097 7.403-16.516 16.516-16.516h462.452c9.113 0 16.516 7.419 16.516 16.516v99.097c0 9.105-7.403 16.516-16.516 16.516h-462.452c-9.113 0-16.516-7.411-16.516-16.516zM99.097 355.21v-66.065h363.355v66.065zM528.516 140.5v99.097c0 9.105-7.403 16.516-16.516 16.516h-462.452c-9.113 0-16.516-7.411-16.516-16.516v-99.097c0-9.097 7.403-16.516 16.516-16.516h462.452c9.113 0 16.516 7.419 16.516 16.516zM974.452 206.565c9.113 0 16.516 7.419 16.516 16.516v346.839h-396.387v33.032h396.387v82.581c0 9.105-7.403 16.516-16.516 16.516h-161.266l-66.065-33.032h-185.573c0-27.315-22.234-49.548-49.548-49.548h-16.516v-66.065h16.516c27.315 0 49.548-22.226 49.548-49.548v-99.097c0-27.315-22.234-49.548-49.548-49.548h-16.516v-66.065h16.516c27.315 0 49.548-22.226 49.548-49.548v-33.032zM792.774 669.016h165.161v-33.032h-165.161zM594.581 239.597v264.258h363.355v-264.258zM627.613 470.823v-198.194h297.29v198.194zM660.645 437.79h231.226v-33.032h-231.226zM660.645 371.726h231.226v-33.032h-231.226zM726.71 817.661v-43.234l-185.573 92.782 185.573 92.79v-43.242h214.71v-33.032h-247.742v22.831l-78.685-39.347 78.685-39.339v22.823h313.806v-33.032zM974.452 916.758h33.032v-33.032h-33.032zM825.806 90.952v43.242l185.573-92.79-185.573-92.782v43.234h-165.161v33.032h198.194v-22.823l78.685 39.339-78.685 39.347v-22.831h-264.258v33.032zM594.581 24.887h33.032v-33.032h-33.032z" />
<glyph unicode="&#xe90f;" glyph-name="marketing" d="M924.903 877.419h99.097v-462.452h-528.516v33.032h33.032v214.71h99.097v-214.71h33.032v264.258h99.097v-264.258h33.032v313.806h99.097v-313.806h33.032v31.1h33.032v-31.1h33.032v396.387h-33.032v-332.255h-33.032zM594.581 448v181.677h-33.032v-181.677zM726.71 448v231.226h-33.032v-231.226zM858.839 448v280.774h-33.032v-280.774zM594.581 332.387h363.355v-33.032h-363.355zM594.581 134.194h363.355v-33.032h-363.355zM594.581 233.29h165.161v-33.032h-165.161zM792.774 233.29h165.161v-33.032h-165.161zM594.581 35.097h165.161v-33.032h-165.161zM792.774 35.097h165.161v-33.032h-165.161zM528.516 332.387h33.032v-33.032h-33.032zM528.516 233.29h33.032v-33.032h-33.032zM528.516 134.194h33.032v-33.032h-33.032zM528.516 35.097h33.032v-33.032h-33.032zM693.677 960h115.613v-115.613h-33.032v70.094c-83.34-119.659-201.811-206.831-336.681-251.276 14.501-30.208 22.875-63.901 22.875-99.592 0-110.476-77.923-202.983-181.677-225.742v-71.548h33.032v-247.742c0-45.535-37.046-82.581-82.581-82.581s-82.581 37.046-82.581 82.581v247.742h33.032v71.548c-103.754 22.759-181.677 115.266-181.677 225.742 0 127.505 103.721 231.226 231.226 231.226 79.839 0 150.346-40.679 191.901-102.4 128.281 40.811 241.268 122.318 321.486 234.529h-50.936zM280.774 18.581v214.71h-99.097v-214.71c0-27.318 22.231-49.548 49.548-49.548s49.548 22.231 49.548 49.548zM214.71 266.323h33.032v66.907c-5.483-0.396-10.934-0.842-16.516-0.842s-11.033 0.446-16.516 0.842zM231.226 365.419c109.287 0 198.194 88.906 198.194 198.194 0 32.438-7.977 62.993-21.851 90.046-10.95-3.006-21.983-5.698-33.115-8.142 13.874-24.163 21.933-52.092 21.933-81.903 0-91.070-74.091-165.161-165.161-165.161s-165.161 74.091-165.161 165.161c0 91.070 74.091 165.161 165.161 165.161 48.293 0 91.681-20.975 121.906-54.123 12.139 2.378 24.163 5.054 36.088 8.126-36.203 47.897-93.465 79.030-157.993 79.030-109.287 0-198.194-88.906-198.194-198.194s88.906-198.194 198.194-198.194zM339.72 638.827c-35.559-5.863-71.763-9.15-108.494-9.15v33.032c27.235 0 54.206 1.8 80.797 5.219-22.363 17.358-50.358 27.813-80.797 27.813-72.853 0-132.129-59.276-132.129-132.129s59.276-132.129 132.129-132.129 132.129 59.276 132.129 132.129c0 27.945-8.77 53.843-23.635 75.214z" />
<glyph unicode="&#xe910;" glyph-name="data" d="M1018.754 890.68c2.619-3.045 3.893-6.982 3.545-10.949l-77.863-893.022c-0.707-8.13-8.253-14.378-16.565-13.671l-29.666 2.482v-19.543c0-8.29-6.855-15.005-15.317-15.005h-751.561c-6.093 0-11.741 3.668-14.115 9.163-1.692 3.923-0.805 7.82-1.323 11.876l-114.131 889.274c-1.038 8.11 5.014 15.739 13.288 16.758l223.592 27.538 4.303 49.359c0.707 8.126 8.253 14.388 16.565 13.671l288.662-24.154c0.882-0.074 1.729-0.233 2.556-0.444l210.015 25.866c8.373 1.033 16.051-4.795 17.107-13.016l4.104-31.96 226.393-18.942c4.047-0.338 7.792-2.239 10.409-5.282zM116.011 201.657v648.577l-81.942-10.091zM272.163 927.435l-2.442-28.027 136.497 16.812zM749.365 928.233l-495.134-60.976h502.961zM915.218 4.217l75.256 863.122-204.615 17.12 2.209-17.202h94.824c8.462 0 15.317-6.717 15.317-15.005v-338.103c0-8.29-6.855-15.005-15.317-15.005s-15.317 6.715-15.317 15.005v323.098h-720.929v-866.262h720.926v473.144c0 8.29 6.855 15.005 15.317 15.005s15.317-6.717 15.317-15.005v-438.489zM343.725 211.057c8.46 0 15.317-6.715 15.317-15.005s-6.857-15.005-15.317-15.005h-130.706c-8.46 0-15.317 6.715-15.317 15.005s6.859 15.005 15.317 15.005zM539.786 211.057c8.46 0 15.317-6.715 15.317-15.005s-6.857-15.005-15.317-15.005h-130.706c-8.46 0-15.317 6.715-15.317 15.005s6.857 15.005 15.317 15.005zM425.417 131.032c8.458 0 15.317-6.715 15.317-15.005s-6.857-15.005-15.317-15.005h-212.399c-8.46 0-15.317 6.715-15.317 15.005s6.859 15.005 15.317 15.005zM539.786 131.032c8.46 0 15.315-6.715 15.317-15.005 0-8.29-6.857-15.005-15.317-15.005h-49.016c-8.46 0-15.317 6.715-15.317 15.005s6.859 15.005 15.317 15.005zM278.372 51.008c8.46 0 15.317-6.715 15.317-15.005s-6.857-15.005-15.317-15.005h-65.353c-8.46 0-15.317 6.715-15.317 15.005s6.859 15.005 15.317 15.005zM539.786 51.008c8.46 0 15.317-6.715 15.317-15.005s-6.857-15.005-15.317-15.005h-196.059c-8.46 0-15.317 6.715-15.317 15.005s6.859 15.005 15.317 15.005zM801.199 787.232c8.46 0 15.319-6.715 15.319-15.005s-6.857-15.005-15.317-15.005h-73.494l-31.844-46.79c44.077-40.705 71.639-98.392 71.639-162.274 0-8.29-6.855-15.005-15.317-15.005h-212.399c-8.462 0-15.317 6.717-15.317 15.005v208.064c0 8.29 6.857 15.005 15.317 15.005 49.302 0 94.99-15.435 132.307-41.621l34.67 50.943c2.838 4.176 7.621 6.681 12.743 6.681zM736.278 563.164c-3.747 47.488-25.116 90.208-57.683 121.897l-11.697-17.188c-4.996-7.338-15.705-8.837-22.609-3.157-5.896 4.85-7.148 13.534-2.879 19.803l13.668 20.084c-28.558 20.251-62.828 33.228-99.974 36.038v-177.477zM801.199 291.082c8.46 0 15.317-6.717 15.317-15.007s-6.857-15.005-15.317-15.005h-147.046c-5.281 0-10.189 2.665-12.989 7.052l-26.006 40.761c-38.764-29.932-87.652-47.813-140.727-47.813-125.562 0-227.716 100.069-227.716 223.069s102.154 223.069 227.716 223.069c8.46 0 15.317-6.717 15.317-15.005v-193.059h197.081c8.462 0 15.317-6.715 15.317-15.005 0-60.061-24.369-114.65-63.917-154.794l24.413-38.263zM585.454 412.067l35.974-56.389c27.945 30.65 46.076 70.064 49.497 113.454h-196.492c-8.46 0-15.317 6.717-15.317 15.005v192.482c-101.541-7.682-181.764-91.077-181.764-192.482 0-106.452 88.411-193.059 197.081-193.059 47.124 0 90.435 16.292 124.383 43.422l-39.343 61.663c-4.484 7.028-2.302 16.286 4.872 20.677 7.172 4.393 16.626 2.259 21.108-4.773z" />
<glyph unicode="&#xe911;" glyph-name="chat" d="M725.2 832c29.145 0 52.855-23.103 52.855-51.5v-141.218c0-11.917-9.917-21.575-22.143-21.575s-22.143 9.659-22.143 21.575v141.218c0 4.603-3.843 8.349-8.569 8.349h-629.676c-4.725 0-8.569-3.744-8.569-8.349v-368.085c0-4.603 3.843-8.349 8.569-8.349h62.962c11.563 0 21.045-8.639 22.044-19.653 0.072-0.559 0.11-108.439 0.11-108.439l124.977 121.772c3.942 3.839 9.002 5.907 14.157 6.249 0.435 0.043 42.033 0.071 42.033 0.071 12.227 0 22.143-9.659 22.143-21.577s-9.913-21.575-22.143-21.575h-31.357l-156.294-152.284c-4.237-4.126-9.898-6.32-15.662-6.32-2.853 0-5.731 0.536-8.47 1.643-8.276 3.34-13.669 11.209-13.669 19.934v137.029h-40.83c-29.146 0-52.857 23.104-52.857 51.502v368.084c0 28.397 23.711 51.5 52.857 51.5zM611.866 689.356c12.228 0 22.143-9.659 22.143-21.575s-9.915-21.575-22.143-21.575h-403.008c-12.227 0-22.143 9.659-22.143 21.575s9.915 21.575 22.143 21.575zM361.805 546.711c12.228 0 22.143-9.659 22.143-21.575s-9.913-21.575-22.143-21.575h-152.946c-12.227 0-22.143 9.659-22.143 21.575s9.915 21.575 22.143 21.575zM810.98 412.62c12.223 0 22.143-9.666 22.143-21.575s-9.918-21.575-22.143-21.575c-12.223 0-22.143 9.666-22.143 21.575s9.92 21.575 22.143 21.575zM708.102 412.62c12.223 0 22.143-9.666 22.143-21.575s-9.918-21.575-22.143-21.575c-12.223 0-22.143 9.666-22.143 21.575s9.92 21.575 22.143 21.575zM605.202 412.62c12.225 0 22.143-9.666 22.143-21.575s-9.918-21.575-22.143-21.575c-12.221 0-22.143 9.666-22.143 21.575s9.922 21.575 22.143 21.575zM779.86 252.099l94.287-91.869v91.871h54.33c7.545 0 13.746 6.042 13.746 13.393v251.107c0 7.349-6.198 13.389-13.744 13.389h-440.762c-7.545 0-13.746-6.042-13.746-13.393v-251.104c0-7.351 6.201-13.393 13.746-13.393zM913.258 213.993v-93.675c0-8.728-5.397-16.593-13.669-19.934-2.739-1.106-5.617-1.643-8.47-1.643-5.762 0-11.425 2.192-15.662 6.32l-111.797 108.93h-275.943c-29.146 0-52.857 23.104-52.857 51.502v251.104c0 28.399 23.712 51.502 52.857 51.502h440.762c29.146 0 52.857-23.103 52.855-51.5v-251.104c0-28.399-23.712-51.502-52.857-51.502h-15.219v-38.108z" />
<glyph unicode="&#xe912;" glyph-name="share" d="M623.841 607.973c-10.276 7.825-21.424 14.507-33.244 19.863l68.757 115.745c-13.762 13.926-22.277 33.008-22.277 54.123 0 42.54 34.424 76.963 76.963 76.963 42.612 0 77.054-34.442 77.054-76.963 0-42.54-34.442-77-77.054-77-7.389 0-14.434 1.398-21.224 3.341zM861.721 510.802c42.521 0 76.945-34.46 76.945-76.963 0-42.521-34.424-76.945-76.945-76.945-38.4 0-70.046 28.178-75.838 64.926l-95.791 9.459c2.487 11.783 3.867 23.984 3.867 36.475 0 0.708-0.109 1.398-0.109 2.124l95.828-9.459c10.875 29.34 38.927 50.383 72.043 50.383zM517.991 335.741c-72.908 0-132.012 59.104-132.012 132.012s59.104 132.012 132.012 132.012 132.012-59.104 132.012-132.012c0-72.908-59.104-132.012-132.012-132.012zM404.28 601.836c-9.877-8.37-18.719-17.866-26.562-28.233l-51.835 49.003c-11.838-7.408-25.709-11.874-40.706-11.874-42.54 0-77.036 34.46-77.036 77s34.496 76.963 77.036 76.963c42.54 0 76.982-34.442 76.982-76.963 0-13.417-3.74-25.854-9.786-36.839zM597.279 208.104c41.432-1.235 74.694-35.023 74.639-76.764 0-42.503-34.424-76.927-76.945-76.927-42.612 0-77.036 34.406-77.036 76.927 0 29.703 16.976 55.14 41.577 68.012l-21.46 93.631c13.127 1.507 25.709 4.521 37.801 8.733zM345.999 430.588c2.778-12.836 7.063-25.092 12.455-36.73l-119.666-40.070c0.145-1.743 0.527-3.377 0.527-5.156 0-42.576-34.515-77.018-77.018-77.018-42.54 0-76.963 34.442-76.963 77.018 0 42.521 34.424 76.963 76.963 76.963 26.962 0 50.655-13.944 64.418-34.969z" />
<glyph unicode="&#xe913;" glyph-name="live-chat" d="M981.333 337.569v-279.359c0-23.564-19.103-42.667-42.667-42.667-13.006 0-25.301 5.932-33.395 16.111l-89.585 112.66h-627.953c-80.118 0-145.067 64.949-145.067 145.067v482.886c0 80.118 64.949 145.067 145.067 145.067h648.533c80.118 0 145.067-64.949 145.067-145.067zM291.137 475.608c30.495 0 55.216 24.721 55.216 55.216s-24.721 55.216-55.216 55.216-55.216-24.721-55.216-55.216c0-30.495 24.721-55.216 55.216-55.216zM512 475.608c30.495 0 55.216 24.721 55.216 55.216s-24.721 55.216-55.216 55.216-55.216-24.721-55.216-55.216c0-30.495 24.721-55.216 55.216-55.216zM732.863 475.608c30.495 0 55.216 24.721 55.216 55.216s-24.721 55.216-55.216 55.216c-30.495 0-55.216-24.721-55.216-55.216s24.721-55.216 55.216-55.216z" />
<glyph unicode="&#xe914;" glyph-name="phone" d="M934.65 861.017c10.7-1.189 19.022-5.944 24.967-14.267s8.917-17.239 8.917-26.75c0-149.801-37.45-288.899-112.35-417.3-73.711-124.834-172.983-224.105-297.817-297.817-128.401-74.9-267.499-112.35-417.3-112.35-9.511 0-18.428 2.972-26.75 8.917s-13.078 14.267-14.267 24.967l-42.8 185.467c-2.378 9.511-1.189 19.022 3.567 28.533s11.889 16.050 21.4 19.617l199.733 85.6c8.322 3.567 17.239 4.458 26.75 2.675s17.239-6.836 23.183-15.158l87.383-107c70.145 32.1 132.264 75.494 186.358 130.183s97.192 116.511 129.292 185.467l-107 89.167c-7.133 5.944-11.889 13.375-14.267 22.292s-1.783 18.131 1.783 27.642l85.6 199.733c3.567 8.322 10.106 14.861 19.617 19.617s19.022 5.944 28.533 3.567z" />
<glyph unicode="&#xe915;" glyph-name="facebook" d="M911.467 762.933v-627.733c0-23.778-8.322-43.989-24.967-60.633s-36.855-24.967-60.633-24.967h-151.583v315.65h107l16.050 121.267h-123.050v76.683c0 19.022 3.567 33.289 10.7 42.8 9.511 10.7 25.561 16.050 48.15 16.050h64.2v107c-24.967 3.567-55.878 5.35-92.733 5.35-47.556 0-85.303-13.969-113.242-41.908s-41.908-66.875-41.908-116.808v-89.167h-108.783v-121.267h108.783v-315.65h-351.317c-23.778 0-43.989 8.322-60.633 24.967s-24.967 36.855-24.967 60.633v627.733c0 23.778 8.322 43.989 24.967 60.633s36.855 24.967 60.633 24.967h627.733c23.778 0 43.989-8.322 60.633-24.967s24.967-36.855 24.967-60.633z" />
<glyph unicode="&#xe916;" glyph-name="twitter" d="M874.017 634.533c1.189-4.756 1.783-12.483 1.783-23.183 0-85.6-20.805-168.227-62.417-247.883-42.8-84.412-102.839-151.583-180.117-201.517-84.412-55.878-181.305-83.817-290.683-83.817-104.623 0-200.327 27.939-287.117 83.817 13.078-1.189 27.939-1.783 44.583-1.783 86.789 0 164.661 26.75 233.617 80.25-41.611 0-78.169 12.186-109.675 36.558s-53.203 54.986-65.092 91.842c11.889-1.189 23.183-1.783 33.883-1.783 16.645 0 33.289 1.783 49.933 5.35-42.8 9.511-78.467 31.505-107 65.983s-42.8 73.711-42.8 117.7v3.567c26.156-15.456 54.094-23.778 83.817-24.967-24.967 17.833-45.178 40.422-60.633 67.767s-23.183 57.364-23.183 90.058c0 32.695 8.917 63.903 26.75 93.625 46.367-58.256 103.136-104.622 170.308-139.1s138.802-53.5 214.892-57.067c-2.378 14.267-3.567 28.533-3.567 42.8 0 33.289 8.322 64.497 24.967 93.625s39.233 52.014 67.767 68.658c28.533 16.645 59.444 24.967 92.733 24.967 27.345 0 52.608-5.35 75.792-16.050s43.692-24.967 61.525-42.8c42.8 8.322 82.628 23.183 119.483 44.583-14.267-43.989-41.611-78.467-82.033-103.433 35.667 4.756 71.333 14.861 107 30.317-26.156-38.045-57.661-70.739-94.517-98.083z" />
<glyph unicode="&#xe917;" glyph-name="skype" d="M870.45 370.6c27.345-35.667 41.017-76.089 41.017-121.267 0-35.667-8.917-68.955-26.75-99.867s-42.205-55.283-73.117-73.117c-30.911-17.833-64.2-26.75-99.867-26.75-45.178 0-85.6 13.672-121.267 41.017-26.156-4.756-52.311-7.133-78.467-7.133-66.578 0-127.805 16.347-183.683 49.042s-100.164 76.98-132.858 132.858c-32.695 55.878-49.042 117.105-49.042 183.683 0 24.967 2.378 51.122 7.133 78.467-27.345 35.667-41.017 76.089-41.017 121.267 0 35.667 8.917 68.955 26.75 99.867s42.205 55.283 73.117 73.117c30.911 17.833 64.2 26.75 99.867 26.75 45.178 0 85.6-13.672 121.267-41.017 26.156 4.756 52.311 7.133 78.467 7.133 66.578 0 127.805-16.347 183.683-49.042s100.164-76.98 132.858-132.858c32.695-55.878 49.042-117.105 49.042-183.683 0-24.967-2.378-51.122-7.133-78.467zM522.7 208.317c53.5 0 99.272 12.483 137.317 37.45 41.611 28.533 62.417 67.172 62.417 115.917 0 40.422-17.833 73.117-53.5 98.083-24.967 16.645-61.228 30.317-108.783 41.017l-28.533 5.35c-36.856 9.511-60.633 16.644-71.333 21.4-15.456 7.133-23.183 17.833-23.183 32.1 0 26.156 24.966 39.233 74.9 39.233 20.211 0 38.044-3.567 53.5-10.7 8.322-4.756 19.022-12.483 32.1-23.183 8.322-9.511 15.456-15.456 21.4-17.833 8.322-4.756 17.239-7.133 26.75-7.133 16.645 0 30.019 5.35 40.125 16.050s15.158 24.372 15.158 41.017c0 28.533-20.805 52.311-62.417 71.333-39.234 17.833-84.708 26.75-136.425 26.75s-95.408-10.7-131.075-32.1c-41.611-26.156-62.417-63.605-62.417-112.35 0-33.289 8.322-60.039 24.967-80.25 13.078-17.833 34.478-32.1 64.2-42.8 17.833-7.133 48.15-15.456 90.95-24.967l35.667-8.917c26.156-5.944 42.8-11.294 49.933-16.050 13.078-7.133 19.617-17.833 19.617-32.1s-7.133-25.858-21.4-34.775c-14.267-8.917-32.992-13.375-56.175-13.375s-43.692 5.35-61.525 16.050c-10.7 5.944-23.778 16.644-39.233 32.1-10.7 11.889-19.022 19.617-24.967 23.183-9.511 5.944-19.617 8.917-30.317 8.917-16.645 0-29.425-5.053-38.342-15.158s-13.375-22.886-13.375-38.342c0-21.4 9.511-41.017 28.533-58.85s45.178-31.803 78.467-41.908c33.289-10.106 68.955-15.158 107-15.158z" />
<glyph unicode="&#xe918;" glyph-name="weixin" d="M686.583 606c-53.5 0-102.839-12.186-148.017-36.558s-80.844-57.661-107-99.867c-26.156-42.206-39.233-88.275-39.233-138.208 0-23.778 3.567-47.555 10.7-71.333-11.889-1.189-22.589-1.783-32.1-1.783-24.967 0-58.85 4.161-101.65 12.483l-19.617 5.35-121.267-62.417 33.883 105.217c-92.734 65.389-139.1 143.855-139.1 235.4 0 53.5 15.455 102.839 46.367 148.017s73.116 80.844 126.617 107 111.755 39.233 174.767 39.233c55.878 0 108.783-10.7 158.717-32.1s91.841-50.528 125.725-87.383c33.884-36.856 55.581-78.466 65.092-124.833-10.7 1.189-21.994 1.783-33.883 1.783zM501.117 700.517c-14.267 0-26.75-3.864-37.45-11.592s-16.050-18.13-16.050-31.208c0-13.078 5.35-23.481 16.050-31.208s22.886-11.592 36.558-11.592 24.372 3.864 32.1 11.592c7.728 7.728 11.592 18.13 11.592 31.208s-3.864 23.481-11.592 31.208c-7.728 7.728-18.13 11.592-31.208 11.592zM256.8 614.917c13.078 0 23.778 3.864 32.1 11.592s12.483 18.13 12.483 31.208c0 13.078-4.161 23.481-12.483 31.208s-19.022 11.592-32.1 11.592-24.967-3.864-35.667-11.592c-10.7-7.728-16.050-18.13-16.050-31.208s5.35-23.481 16.050-31.208c10.7-7.728 22.589-11.592 35.667-11.592zM1004.017 336.717c0-38.045-11.294-74.9-33.883-110.567-21.4-32.1-50.528-61.822-87.383-89.167l26.75-87.383-96.3 51.717-5.35-1.783c-43.989-10.7-76.683-16.050-98.083-16.050-54.689 0-104.622 11.294-149.8 33.883s-80.844 53.203-107 91.842c-26.156 38.639-39.233 80.844-39.233 126.617s13.078 87.978 39.233 126.617c26.156 38.639 61.822 69.253 107 91.842s95.111 33.883 149.8 33.883c51.122 0 99.272-11.294 144.45-33.883s81.439-53.203 108.783-91.842c27.345-38.639 41.017-80.547 41.017-125.725zM613.467 379.517c13.078 0 23.481 3.567 31.208 10.7s11.592 15.158 11.592 24.075c0 8.917-3.864 16.942-11.592 24.075s-18.13 10.7-31.208 10.7c-8.322 0-16.050-3.567-23.183-10.7s-10.7-15.158-10.7-24.075c0-8.917 3.567-16.942 10.7-24.075s14.861-10.7 23.183-10.7zM804.283 379.517c13.078 0 23.481 3.567 31.208 10.7s11.592 15.158 11.592 24.075c0 8.917-4.161 16.942-12.483 24.075s-18.428 10.7-30.317 10.7c-8.322 0-16.050-3.567-23.183-10.7s-10.7-15.158-10.7-24.075c0-8.917 3.567-16.942 10.7-24.075s14.861-10.7 23.183-10.7z" />
<glyph unicode="&#xe919;" glyph-name="weibo" horiz-adv-x="1067" d="M781.283 588.167c7.133 21.4 3.27 40.422-11.592 57.067s-32.992 22.589-54.392 17.833c-13.078-2.378-22.886 0.594-29.425 8.917s-8.619 18.13-6.242 29.425c2.378 11.295 9.511 18.131 21.4 20.508 29.722 5.944 56.769 2.081 81.142-11.592s42.205-33.586 53.5-59.742c11.295-26.156 12.186-52.905 2.675-80.25-3.567-11.889-10.997-18.725-22.292-20.508s-20.806 1.189-28.533 8.917c-7.728 7.728-9.808 17.536-6.242 29.425zM438.883 108.45c-64.2 0-125.725 10.105-184.575 30.317s-106.108 48.15-141.775 83.817c-38.045 38.045-57.067 81.439-57.067 130.183 0 39.234 11.889 80.844 35.667 124.833s57.066 87.383 99.867 130.183c42.8 42.8 86.789 76.683 131.967 101.65 40.422 22.589 76.98 34.181 109.675 34.775s55.58-9.808 68.658-31.208c13.078-21.4 13.078-52.905 0-94.517-4.756-13.078 1.783-16.644 19.617-10.7h1.783c47.556 20.211 89.761 30.317 126.617 30.317s62.714-10.403 77.575-31.208c14.861-20.806 14.564-50.825-0.892-90.058-2.378-8.322-2.378-13.672 0-16.050s7.728-4.756 16.050-7.133c57.067-19.022 92.139-49.933 105.217-92.733 11.889-40.422 1.783-83.519-30.317-129.292s-79.655-83.519-142.667-113.242c-71.334-33.289-149.8-49.933-235.4-49.933zM695.683 370.6c-3.567 32.1-19.022 60.633-46.367 85.6s-62.714 43.394-106.108 55.283c-43.395 11.889-90.058 15.456-139.992 10.7s-94.814-17.239-134.642-37.45-70.739-45.178-92.733-74.9c-21.995-29.722-31.506-60.93-28.533-93.625s18.13-61.525 45.475-86.492c27.345-24.967 62.714-43.394 106.108-55.283s90.058-15.456 139.992-10.7c49.934 4.756 95.111 17.239 135.533 37.45s71.333 45.178 92.733 74.9c21.4 29.722 30.911 61.228 28.533 94.517zM676.067 843.183c59.445 11.889 114.728 3.567 165.85-24.967 49.934-26.156 85.6-65.389 107-117.7 23.778-54.689 26.156-110.566 7.133-167.633-4.756-14.267-13.375-22.292-25.858-24.075s-23.481 1.783-32.992 10.7c-9.511 8.917-11.889 20.508-7.133 34.775 13.078 40.422 11.592 79.655-4.458 117.7s-42.205 66.875-78.467 86.492c-36.261 19.617-75.197 25.264-116.808 16.942-14.267-3.567-25.561-0.297-33.883 9.808s-10.7 21.4-7.133 33.883c3.567 12.483 12.483 20.508 26.75 24.075zM535.183 288.567c-14.267-34.478-40.719-60.039-79.358-76.683s-76.386-19.022-113.242-7.133c-36.856 11.889-62.119 33.586-75.792 65.092s-12.781 63.308 2.675 95.408 41.016 55.878 76.683 71.333c35.667 15.456 71.928 18.428 108.783 8.917s63.308-29.425 79.358-59.742c16.050-30.317 16.347-62.714 0.892-97.192zM381.817 342.067c-11.889 4.756-24.372 4.756-37.45 0s-23.183-12.78-30.317-24.075c-7.133-11.295-9.214-22.589-6.242-33.883s10.403-19.914 22.292-25.858 24.669-6.539 38.342-1.783 24.075 13.078 31.208 24.967c7.133 11.889 8.917 23.778 5.35 35.667s-11.294 20.211-23.183 24.967zM440.667 365.25c-4.756 2.378-9.511 2.378-14.267 0s-8.619-5.647-11.592-9.808c-2.972-4.161-3.864-8.322-2.675-12.483s4.161-7.431 8.917-9.808c4.756-2.378 9.808-2.378 15.158 0s9.214 5.647 11.592 9.808c2.378 4.161 2.972 8.619 1.783 13.375s-4.161 7.728-8.917 8.917z" />
<glyph unicode="&#xe91a;" glyph-name="wordpress" d="M166.033 604.217l180.117-495.767c-64.2 30.911-115.916 76.98-155.15 138.208s-58.85 128.697-58.85 202.408c0 53.5 11.294 105.216 33.883 155.15zM768.8 468.683c0-14.267-2.378-30.911-7.133-49.933-3.567-11.889-9.511-32.1-17.833-60.633l-42.8-139.1-135.533 408.383 42.8 3.567c5.944 0 10.106 2.675 12.483 8.025s2.081 10.7-0.892 16.050-8.025 7.431-15.158 6.242l-35.667-1.783c-26.156-1.189-47.258-1.783-63.308-1.783s-37.747 0.594-65.092 1.783l-35.667 1.783c-7.133 1.189-12.186-0.892-15.158-6.242s-3.269-10.7-0.892-16.050c2.378-5.35 6.539-8.025 12.483-8.025 13.078-2.378 26.75-3.567 41.017-3.567l58.85-162.283-83.817-249.667-137.317 411.95 42.8 3.567c5.944 0 10.106 2.675 12.483 8.025s2.081 10.7-0.892 16.050c-2.972 5.35-7.431 7.431-13.375 6.242l-35.667-1.783c-27.345-1.189-49.339-1.783-65.983-1.783h-24.967c34.478 52.311 79.655 93.922 135.533 124.833s116.511 46.367 181.9 46.367c48.745 0 95.111-8.917 139.1-26.75s83.222-42.205 117.7-73.117h-5.35c-17.833 0-32.992-6.836-45.475-20.508s-18.725-29.425-18.725-47.258c0-13.078 3.567-26.75 10.7-41.017 3.567-8.322 11.294-21.994 23.183-41.017l3.567-7.133c9.511-16.645 16.644-30.911 21.4-42.8 7.133-20.211 10.7-40.422 10.7-60.633zM635.050 95.967l3.567-5.35c-41.611-14.267-83.816-21.4-126.617-21.4-35.667 0-71.333 5.35-107 16.050l114.133 329.917zM845.483 630.967c30.911-55.878 46.367-116.511 46.367-181.9 0-68.956-17.239-132.561-51.717-190.817s-80.25-104.028-137.317-137.317l115.917 335.267c19.022 47.556 28.533 92.733 28.533 135.533 0 14.267-0.594 27.344-1.783 39.233zM954.267 449.067c0-79.656-19.914-153.366-59.742-221.133s-93.625-121.564-161.392-161.392-141.477-59.742-221.133-59.742-153.366 19.914-221.133 59.742-121.564 93.625-161.392 161.392-59.742 141.477-59.742 221.133 19.914 153.366 59.742 221.133 93.625 121.564 161.392 161.392 141.477 59.742 221.133 59.742 153.366-19.914 221.133-59.742 121.564-93.625 161.392-161.392 59.742-141.477 59.742-221.133zM934.65 449.067c0 76.089-19.022 146.53-57.067 211.325s-89.464 116.214-154.258 154.258c-64.795 38.045-135.236 57.067-211.325 57.067s-146.53-19.022-211.325-57.067c-64.795-38.045-116.214-89.464-154.258-154.258s-57.067-135.236-57.067-211.325c0-76.089 19.022-146.53 57.067-211.325s89.464-116.214 154.258-154.258c64.795-38.045 135.236-57.067 211.325-57.067s146.53 19.022 211.325 57.067c64.795 38.045 116.214 89.464 154.258 154.258s57.067 135.236 57.067 211.325z" />
<glyph unicode="&#xe91b;" glyph-name="caret-down" d="M767.017 585.625c7.728-7.728 11.592-16.644 11.592-26.75s-3.864-19.022-11.592-26.75l-228.267-228.267c-4.161-4.161-8.768-7.133-13.821-8.917s-9.362-2.675-12.929-2.675-7.876 0.892-12.929 2.675c-5.053 1.783-9.66 4.756-13.821 8.917l-228.267 228.267c-7.728 7.728-11.592 16.644-11.592 26.75s3.864 19.022 11.592 26.75c7.728 7.133 16.644 10.7 26.75 10.7s19.022-3.567 26.75-10.7l201.517-202.408 201.517 202.408c7.728 7.133 16.644 10.7 26.75 10.7s19.022-3.567 26.75-10.7z" />
<glyph unicode="&#xe91c;" glyph-name="external-link" d="M825.867 848.533c23.778 0 43.989-8.322 60.633-24.967s24.967-36.855 24.967-60.633v-627.733c0-23.778-8.322-43.989-24.967-60.633s-36.855-24.967-60.633-24.967h-627.733c-23.778 0-43.989 8.322-60.633 24.967s-24.967 36.855-24.967 60.633v627.733c0 23.778 8.322 43.989 24.967 60.633s36.855 24.967 60.633 24.967zM854.4 135.2v627.733c0 8.322-2.675 15.158-8.025 20.508s-12.186 8.025-20.508 8.025h-627.733c-8.322 0-15.158-2.675-20.508-8.025s-8.025-12.186-8.025-20.508v-627.733c0-8.322 2.675-15.158 8.025-20.508s12.186-8.025 20.508-8.025h627.733c8.322 0 15.158 2.675 20.508 8.025s8.025 12.186 8.025 20.508zM299.783 227.933l-8.917 8.917c-4.756 4.756-7.133 10.106-7.133 16.050s2.378 10.7 7.133 14.267l347.75 347.75-1.783 1.783h-160.5c-5.944 0-10.997 2.081-15.158 6.242s-6.242 9.214-6.242 15.158v17.833c0 5.944 2.081 10.997 6.242 15.158s9.214 6.242 15.158 6.242h242.533c5.944 0 10.997-2.081 15.158-6.242s6.242-9.214 6.242-15.158v-242.533c0-5.944-2.081-10.997-6.242-15.158s-9.214-6.242-15.158-6.242h-17.833c-5.944 0-10.997 2.081-15.158 6.242s-6.242 9.214-6.242 15.158v160.5l-1.783 1.783-347.75-347.75c-3.567-4.756-8.322-7.133-14.267-7.133s-11.294 2.378-16.050 7.133z" />
</font>
</defs>
</svg>
